<svg width="34" height="34" viewBox="0 0 34 34" fill="none" xmlns="http://www.w3.org/2000/svg">
<g clip-path="url(#clip0_11_547)">
<path d="M0.584473 12.8188H33.6237V20.0461H0.584473V12.8188Z" fill="#E6E7E8"/>
<path d="M28.4613 5.07523H5.74685C2.32574 5.07523 0.584473 7.6177 0.584473 10.7538V12.8188H33.6237V10.7538C33.6237 7.6177 31.8824 5.07523 28.4613 5.07523Z" fill="#FF9933"/>
<path d="M0.584473 22.1111C0.584473 25.2472 2.32574 27.7897 5.74685 27.7897H28.4613C31.8824 27.7897 33.6237 25.2472 33.6237 22.1111V20.0461H0.584473V22.1111Z" fill="#128807"/>
<path fill-rule="evenodd" clip-rule="evenodd" d="M17.2643 13.1198C17.9239 13.1198 18.5687 13.3154 19.117 13.682C19.6654 14.0486 20.0927 14.5695 20.3449 15.179C20.597 15.7885 20.6628 16.4591 20.5337 17.1059C20.4047 17.7528 20.0866 18.3468 19.6199 18.8129C19.1531 19.2789 18.5586 19.596 17.9115 19.7241C17.2645 19.8521 16.594 19.7854 15.9849 19.5322C15.3758 19.2791 14.8555 18.851 14.4898 18.3021C14.1241 17.7531 13.9294 17.1081 13.9304 16.4485C13.9319 15.5652 14.2838 14.7186 14.9089 14.0946C15.5339 13.4705 16.381 13.1199 17.2643 13.1198ZM15.0419 14.5627C15.0992 14.6277 15.1095 14.6974 15.0713 14.7557C15.0551 14.7826 15.0301 14.803 15.0006 14.8136C14.9779 14.822 14.9535 14.8248 14.9295 14.8217C14.9055 14.8187 14.8826 14.8098 14.8628 14.796C14.773 14.9245 14.6941 15.0602 14.6268 15.2018C14.7048 15.2529 14.7306 15.3169 14.7048 15.3876C14.691 15.4236 14.6637 15.4528 14.6287 15.469C14.5937 15.4852 14.5538 15.4871 14.5174 15.4743C14.4802 15.5487 14.3981 15.8625 14.3971 15.9286C14.4313 15.9352 14.462 15.9536 14.4838 15.9808C14.5069 16.0077 14.5187 16.0424 14.5169 16.0778C14.5071 16.1749 14.4472 16.2162 14.3558 16.2198C14.3413 16.3132 14.3429 16.6261 14.3574 16.6875C14.4544 16.6978 14.5055 16.7402 14.5138 16.814C14.5251 16.8935 14.4869 16.9451 14.394 16.9812C14.4219 17.1346 14.4616 17.2853 14.5138 17.4329C14.5502 17.422 14.5892 17.4232 14.6248 17.4366C14.6594 17.4515 14.6867 17.4773 14.7012 17.513C14.7141 17.5408 14.7167 17.5697 14.7099 17.6002C14.7051 17.6228 14.6951 17.644 14.6807 17.6621C14.6663 17.6802 14.6478 17.6947 14.6268 17.7045C14.696 17.848 14.7724 17.9833 14.8628 18.1102C14.9433 18.0705 15.0135 18.0798 15.061 18.1366C15.0819 18.1599 15.0938 18.1899 15.0945 18.2212C15.0961 18.2444 15.0921 18.2676 15.0827 18.2888C15.0734 18.31 15.059 18.3286 15.0409 18.3431C15.1441 18.4639 15.2541 18.5743 15.3738 18.676C15.4415 18.6167 15.5117 18.6074 15.5721 18.6497C15.5994 18.6688 15.6185 18.6941 15.6273 18.7251C15.6336 18.747 15.6349 18.7701 15.6312 18.7926C15.6274 18.8151 15.6187 18.8365 15.6056 18.8552C15.7362 18.945 15.871 19.0224 16.0119 19.0895C16.0666 19.0126 16.1291 18.9868 16.1967 19.0126C16.2262 19.0232 16.2517 19.0425 16.27 19.0679C16.2958 19.1092 16.2994 19.1546 16.2845 19.2031C16.4331 19.2558 16.5829 19.296 16.7377 19.3234C16.7682 19.2362 16.8208 19.1954 16.891 19.2005C16.9236 19.2031 16.953 19.2129 16.9788 19.2351C17.0149 19.2682 17.032 19.31 17.0289 19.3616C17.1879 19.373 17.3433 19.374 17.4976 19.3616C17.509 19.262 17.5487 19.2119 17.6288 19.2005C17.6591 19.1963 17.6901 19.2025 17.7165 19.2181C17.7358 19.229 17.7525 19.2442 17.7652 19.2624C17.7778 19.2806 17.7863 19.3015 17.7898 19.3234C17.9457 19.2945 18.097 19.2547 18.2431 19.2026C18.2302 19.105 18.2539 19.0467 18.3195 19.0162C18.3434 19.006 18.3695 19.0019 18.3954 19.0044C18.4222 19.0064 18.4465 19.0147 18.4661 19.0322C18.4852 19.0483 18.5012 19.0679 18.5198 19.088C18.6605 19.0216 18.7955 18.9437 18.9235 18.8552C18.8708 18.7726 18.9018 18.6936 18.9446 18.6585C18.9596 18.6457 18.9769 18.636 18.9957 18.6299C19.0144 18.6239 19.0341 18.6217 19.0537 18.6233C19.0734 18.625 19.0924 18.6306 19.1099 18.6397C19.1273 18.6489 19.1427 18.6614 19.1553 18.6766C19.2745 18.5743 19.3865 18.4634 19.4867 18.3441C19.4284 18.2775 19.417 18.2073 19.4598 18.1469C19.4772 18.1198 19.5038 18.1 19.5347 18.0911C19.5567 18.0842 19.58 18.0823 19.6029 18.0858C19.6257 18.0893 19.6474 18.098 19.6663 18.1113C19.7567 17.9812 19.8351 17.8464 19.9023 17.705C19.8269 17.6544 19.7995 17.595 19.8222 17.5274C19.8305 17.4973 19.8487 17.471 19.8739 17.4526C19.8939 17.4386 19.9169 17.4294 19.9411 17.4258C19.9653 17.4223 19.99 17.4243 20.0133 17.4319C20.0468 17.3591 20.1304 17.0525 20.1351 16.9781C20.0994 16.9716 20.0671 16.9526 20.0442 16.9244C20.0322 16.9105 20.0232 16.8942 20.0178 16.8766C20.0124 16.859 20.0106 16.8405 20.0127 16.8222C20.0147 16.7895 20.0282 16.7586 20.0509 16.735C20.0665 16.7186 20.0855 16.7059 20.1066 16.6979C20.1277 16.6899 20.1503 16.6867 20.1728 16.6885C20.1857 16.5324 20.1857 16.3754 20.1728 16.2193C20.0742 16.2095 20.0272 16.1713 20.0143 16.0933C20.0085 16.0638 20.0128 16.0333 20.0267 16.0066C20.0373 15.986 20.0526 15.9681 20.0713 15.9544C20.09 15.9407 20.1117 15.9315 20.1346 15.9276C20.1075 15.7734 20.0672 15.6217 20.0143 15.4743C19.9188 15.4903 19.8599 15.4645 19.8284 15.3985C19.8203 15.3808 19.8157 15.3617 19.815 15.3422C19.8143 15.3228 19.8175 15.3034 19.8243 15.2851C19.8312 15.2669 19.8416 15.2503 19.855 15.2361C19.8684 15.222 19.8845 15.2107 19.9023 15.2028C19.8354 15.0609 19.7565 14.925 19.6663 14.7965C19.5832 14.8363 19.5156 14.827 19.4681 14.7702C19.447 14.7462 19.4353 14.7154 19.4351 14.6835C19.4341 14.6608 19.4384 14.6382 19.4478 14.6175C19.4571 14.5968 19.4711 14.5785 19.4888 14.5642C19.3868 14.4449 19.2758 14.3336 19.1568 14.2312C19.0856 14.2922 19.0164 14.2999 18.9575 14.2576C18.9308 14.2397 18.9113 14.213 18.9023 14.1822C18.8959 14.1605 18.8945 14.1377 18.8983 14.1154C18.902 14.0931 18.9108 14.072 18.924 14.0537C18.7953 13.9639 18.6594 13.885 18.5177 13.8177C18.4645 13.8941 18.4047 13.9194 18.337 13.8967C18.3071 13.8871 18.2809 13.8683 18.2622 13.843C18.2486 13.8229 18.2399 13.7998 18.2368 13.7757C18.2338 13.7516 18.2364 13.7271 18.2446 13.7042C18.0973 13.6509 17.9457 13.6107 17.7914 13.5839C17.7619 13.6675 17.7088 13.7109 17.6401 13.7067C17.608 13.7057 17.5772 13.6941 17.5523 13.6737C17.5339 13.6582 17.5196 13.6384 17.5105 13.6161C17.5014 13.5938 17.4979 13.5696 17.5002 13.5457C17.3442 13.5324 17.1874 13.5326 17.0315 13.5462C17.0206 13.6391 16.9804 13.6923 16.9117 13.7036C16.8808 13.7102 16.8486 13.7062 16.8203 13.6923C16.7992 13.6818 16.7809 13.6665 16.7669 13.6476C16.7529 13.6286 16.7436 13.6066 16.7398 13.5834C16.5855 13.6114 16.4337 13.652 16.286 13.7047C16.3025 13.796 16.2767 13.8559 16.2137 13.8885C16.1864 13.9024 16.1575 13.9081 16.1255 13.9024C16.1014 13.8991 16.0786 13.8896 16.0593 13.8749C16.0401 13.8601 16.025 13.8406 16.0155 13.8182C15.9272 13.8513 15.6464 14.0139 15.6092 14.0547C15.6474 14.1311 15.6387 14.1987 15.586 14.2472C15.5711 14.2604 15.5538 14.2704 15.5349 14.2767C15.5161 14.283 15.4962 14.2854 15.4764 14.2839C15.4566 14.2824 15.4373 14.2769 15.4197 14.2677C15.4021 14.2586 15.3865 14.246 15.3738 14.2307C15.2547 14.3326 15.1437 14.4435 15.0419 14.5627Z" fill="#010088"/>
<path fill-rule="evenodd" clip-rule="evenodd" d="M18.6942 18.9243C18.688 18.9176 18.6818 18.913 18.6772 18.9057C18.377 18.4469 18.0761 17.9887 17.7743 17.531C17.7675 17.5181 17.7598 17.5052 17.7536 17.4907C17.6834 17.3271 17.6147 17.1634 17.543 17.0003C17.5406 16.9919 17.5373 16.9838 17.5332 16.976C17.5043 16.9869 17.4779 16.9993 17.447 17.0111L17.4573 17.0375C17.5218 17.1959 17.5838 17.355 17.6493 17.5134C17.6669 17.5558 17.6741 17.6002 17.6834 17.6446C17.734 17.8815 17.7815 18.1195 17.8326 18.357L18.0071 19.2051C18.0079 19.2072 18.0082 19.2094 18.008 19.2115C18.0077 19.2137 18.0069 19.2158 18.0055 19.2175L17.9983 19.1995C17.8569 18.7663 17.7118 18.3337 17.5698 17.9006C17.5414 17.816 17.5161 17.7323 17.4852 17.6477C17.4707 17.6053 17.4661 17.562 17.4593 17.5181C17.4413 17.3952 17.4258 17.2713 17.4057 17.1485C17.4031 17.119 17.3984 17.0901 17.3943 17.0617C17.393 17.0499 17.3911 17.0382 17.3886 17.0266C17.3576 17.0297 17.3293 17.0339 17.2983 17.0375C17.2983 17.0499 17.2993 17.0628 17.3003 17.0757C17.3184 17.2269 17.3339 17.3787 17.3556 17.5294C17.3669 17.612 17.3613 17.6931 17.3566 17.7757C17.3535 17.8454 17.3489 17.9151 17.3458 17.9853C17.3365 18.1267 17.3293 18.2677 17.3194 18.4086L17.304 18.6997C17.2952 18.8649 17.2849 19.0296 17.2761 19.1938C17.272 19.2403 17.2709 19.2877 17.2663 19.3332L17.2539 19.1768L17.2379 18.8381L17.2193 18.5361C17.2141 18.4329 17.2074 18.3301 17.2017 18.2269C17.1971 18.1592 17.1945 18.0916 17.1904 18.025C17.1847 17.9182 17.178 17.8113 17.1728 17.7055C17.1678 17.6491 17.1691 17.5923 17.177 17.5361C17.1878 17.4597 17.1961 17.3818 17.2054 17.3044C17.2157 17.228 17.2245 17.151 17.2338 17.0757C17.2348 17.0638 17.2348 17.0514 17.2363 17.0375L17.146 17.0256C17.1434 17.0462 17.1388 17.0664 17.1352 17.087C17.1137 17.2447 17.0917 17.4024 17.0691 17.5599C17.0629 17.6213 17.0386 17.6781 17.018 17.7354C16.859 18.2196 16.6994 18.7044 16.5384 19.1881C16.5348 19.1969 16.5332 19.2051 16.5265 19.2134C16.5265 19.2072 16.5265 19.2026 16.5291 19.1969C16.5957 18.8706 16.6628 18.5438 16.732 18.2176C16.7764 18.0008 16.8223 17.7845 16.8662 17.5682L16.8786 17.5325C16.9452 17.3689 17.0092 17.2037 17.0773 17.04C17.0797 17.0304 17.0832 17.021 17.0877 17.0122C17.0592 17 17.0307 16.9881 17.002 16.9765C16.9983 16.9858 16.9927 16.9936 16.9896 17.0029C16.9183 17.167 16.8486 17.3317 16.7774 17.4959C16.7729 17.5082 16.7674 17.5201 16.7609 17.5315C16.4563 17.9929 16.1525 18.455 15.8497 18.9176C15.8456 18.9246 15.8401 18.9307 15.8337 18.9357C15.8363 18.9274 15.8409 18.9207 15.844 18.9135L16.5905 17.4334C16.597 17.42 16.6049 17.4073 16.6143 17.3957L16.9333 16.9678C16.94 16.9605 16.9441 16.9538 16.9503 16.9461C16.924 16.927 16.9028 16.9094 16.8765 16.8893C16.8708 16.896 16.8657 16.9017 16.861 16.9084C16.7495 17.0483 16.6396 17.1892 16.5306 17.3286C16.5182 17.3415 16.5069 17.355 16.493 17.3668C16.0862 17.7308 15.6794 18.0927 15.271 18.4571C15.2628 18.4638 15.2545 18.4711 15.2442 18.4757C15.2488 18.4711 15.2514 18.4654 15.2545 18.4618C15.5895 18.0875 15.922 17.7137 16.2555 17.3395C16.2746 17.3188 16.2937 17.2982 16.3118 17.276C16.35 17.2316 16.3928 17.1923 16.4393 17.1572L16.8099 16.8656C16.8182 16.8594 16.8244 16.8527 16.8337 16.8465C16.8153 16.8217 16.7964 16.7975 16.7769 16.7737C16.7686 16.7788 16.7619 16.784 16.7542 16.7897C16.6122 16.896 16.4697 17.0013 16.3278 17.1082C16.3119 17.1202 16.2949 17.1307 16.2772 17.1397C15.7924 17.3844 15.3051 17.6291 14.8193 17.8738C14.81 17.8779 14.8012 17.8831 14.7904 17.8831L14.81 17.8691L15.7165 17.2754C15.8745 17.1717 16.033 17.0679 16.1899 16.9636C16.2033 16.9559 16.2173 16.9492 16.2292 16.943C16.3938 16.8733 16.558 16.8031 16.7211 16.7329C16.7289 16.7298 16.7366 16.7267 16.7459 16.722L16.7113 16.6369C16.7015 16.6394 16.6953 16.642 16.6876 16.6446C16.5203 16.7112 16.3546 16.7788 16.1863 16.8449C16.1517 16.8578 16.114 16.864 16.0774 16.8718L14.9494 17.1061C14.8074 17.1366 14.6629 17.1665 14.5204 17.1959C14.5147 17.1973 14.5086 17.1966 14.5034 17.1939C14.5426 17.1815 14.5818 17.1676 14.6206 17.1546C15.1079 16.9941 15.5947 16.8341 16.0805 16.6725C16.1187 16.6596 16.1595 16.656 16.1982 16.6498C16.3551 16.6281 16.5115 16.6054 16.6669 16.5832C16.6765 16.5815 16.6859 16.5794 16.6953 16.577C16.6922 16.547 16.6876 16.5171 16.685 16.4861L16.6096 16.4944L16.2978 16.5321C16.2395 16.5398 16.1817 16.546 16.1244 16.5532C16.1104 16.5548 16.097 16.5553 16.0836 16.5548L15.7552 16.5357L15.5611 16.5248L15.2266 16.5052L14.7388 16.4784C14.6211 16.4722 14.5065 16.4644 14.3893 16.4562C14.4079 16.4546 14.4285 16.4515 14.4487 16.4515L14.8487 16.4288L15.3774 16.3989L15.8151 16.3741L16.0898 16.3576C16.1006 16.3571 16.1135 16.3586 16.1244 16.3596L16.4393 16.3973L16.6623 16.4242H16.685C16.6876 16.3947 16.6922 16.3669 16.6953 16.3349C16.6762 16.3307 16.6545 16.3276 16.6354 16.324C16.4976 16.3049 16.3608 16.2848 16.223 16.2647C16.1943 16.2614 16.1658 16.2576 16.1373 16.2533C16.1215 16.2512 16.1059 16.2475 16.0908 16.2425C15.6804 16.1077 15.2726 15.9719 14.8627 15.8372C14.7486 15.7998 14.6347 15.762 14.5209 15.7236C14.5111 15.721 14.5018 15.7167 14.4936 15.7107L14.5653 15.7252L15.4414 15.9074C15.6757 15.9565 15.9137 16.005 16.1481 16.0545C16.1622 16.0577 16.176 16.062 16.1894 16.0675C16.3546 16.1325 16.5182 16.1996 16.685 16.2657L16.7098 16.2755C16.7211 16.2471 16.7335 16.2197 16.7459 16.1903C16.7375 16.1853 16.7287 16.181 16.7196 16.1774C16.5554 16.1082 16.3918 16.0375 16.2281 15.9668C16.2153 15.9614 16.2029 15.955 16.191 15.9477C15.7279 15.6447 15.2669 15.3401 14.8033 15.0365C14.7972 15.0331 14.7923 15.0279 14.7894 15.0216L14.808 15.0319C15.2695 15.2642 15.7315 15.4965 16.194 15.7283C16.2705 15.7665 16.3448 15.8124 16.4129 15.8646C16.5255 15.9518 16.6401 16.0354 16.7547 16.1211C16.7624 16.1268 16.7691 16.132 16.7774 16.1371L16.8342 16.0654L16.8141 16.0478L16.3943 15.718C16.3799 15.7066 16.3685 15.6947 16.3561 15.6823C15.9907 15.273 15.6246 14.8631 15.2602 14.4537C15.2549 14.4495 15.2508 14.444 15.2483 14.4377C15.2591 14.4387 15.2633 14.446 15.2679 14.4506C15.4894 14.6468 15.7088 14.8429 15.9287 15.0391L16.4976 15.5461C16.5079 15.5553 16.5177 15.5667 16.527 15.577L16.8528 15.9911C16.861 16.0003 16.8672 16.0102 16.8765 16.0225L16.9514 15.9652C16.9467 15.958 16.9405 15.9523 16.9369 15.9456C16.8306 15.8037 16.7247 15.6612 16.6174 15.5197C16.6063 15.5031 16.5961 15.4858 16.5869 15.4681C16.3391 14.9803 16.0934 14.4903 15.8471 14.002C15.8425 13.9927 15.8378 13.9855 15.8368 13.9757C15.8415 13.9808 15.8461 13.9855 15.8492 13.9901L16.3768 14.7965L16.75 15.3643C16.7629 15.386 16.7774 15.4087 16.7857 15.4325C16.8553 15.5915 16.9225 15.751 16.9901 15.91C16.9947 15.9172 16.9978 15.925 17.0025 15.9343L17.0882 15.8986L17.0789 15.877C17.0144 15.7159 16.9514 15.5548 16.8858 15.3948C16.8677 15.354 16.861 15.3117 16.8523 15.2693C16.796 15.0004 16.7418 14.7309 16.6855 14.4614C16.6303 14.2023 16.5776 13.9452 16.5234 13.685C16.5224 13.6835 16.5234 13.6814 16.5255 13.6762L16.5709 13.8141C16.733 14.3009 16.8936 14.7887 17.0526 15.2766C17.066 15.3148 17.0706 15.3566 17.0763 15.3963C17.0954 15.5316 17.1145 15.6679 17.1362 15.8042C17.1398 15.83 17.1413 15.8558 17.1465 15.8842L17.2363 15.8728V15.8388C17.2234 15.7309 17.2095 15.6225 17.1971 15.5151C17.1894 15.4521 17.1837 15.3907 17.1749 15.3292C17.1697 15.2879 17.1697 15.2461 17.1749 15.2048C17.1785 15.1346 17.1837 15.0649 17.1868 14.9952L17.2121 14.5745C17.2167 14.4991 17.2183 14.4227 17.2229 14.3473C17.2296 14.2493 17.2348 14.1496 17.2405 14.051C17.2451 13.9788 17.2487 13.906 17.2518 13.8342C17.2559 13.749 17.2627 13.6644 17.2699 13.5797C17.272 13.6029 17.273 13.6267 17.274 13.6515C17.2812 13.7552 17.2864 13.859 17.2926 13.9633L17.3194 14.4361L17.3355 14.7015C17.3437 14.8548 17.3509 15.0086 17.3597 15.162C17.3623 15.1852 17.3633 15.2069 17.3649 15.2296C17.3716 15.2895 17.3597 15.3489 17.3546 15.4082L17.3215 15.6787C17.3164 15.7298 17.3086 15.7809 17.3024 15.8326C17.3014 15.845 17.3014 15.8584 17.2978 15.8733C17.3298 15.878 17.3587 15.8811 17.3907 15.8852C17.3953 15.863 17.3974 15.8424 17.401 15.8207C17.4258 15.6529 17.4495 15.4851 17.4733 15.3163C17.4754 15.3039 17.4805 15.291 17.4836 15.2781C17.6519 14.7732 17.8171 14.2678 17.9844 13.7619C17.9926 13.7387 17.9988 13.7165 18.0117 13.6943C18.0103 13.7061 18.0084 13.7178 18.006 13.7294C17.9307 14.0949 17.8522 14.4594 17.7774 14.8238C17.7438 14.9947 17.7082 15.1661 17.6726 15.337C17.67 15.3511 17.6655 15.3649 17.6591 15.3778L17.4599 15.8759C17.4563 15.8832 17.4537 15.8909 17.4501 15.9002C17.481 15.9121 17.5063 15.9239 17.5363 15.9358L17.5481 15.911L17.7562 15.4222C17.7644 15.4056 17.7706 15.3896 17.7815 15.3762L18.6823 14.002C18.688 13.9948 18.6926 13.9875 18.7014 13.9824C18.6978 13.9896 18.6952 13.9968 18.6906 14.0041L17.9498 15.4753C17.942 15.4893 17.9343 15.5032 17.925 15.5156C17.8176 15.6586 17.7097 15.8016 17.6039 15.9436C17.5988 15.9517 17.5931 15.9595 17.5869 15.9668L17.6602 16.0241C17.666 16.0179 17.6713 16.0114 17.6762 16.0045C17.7856 15.8651 17.8945 15.7252 18.0055 15.5858C18.0178 15.5701 18.0314 15.5556 18.0463 15.5424C18.4541 15.178 18.8625 14.814 19.2708 14.4506C19.2775 14.4449 19.2822 14.4392 19.293 14.4361L19.2796 14.4527C19.1129 14.6411 18.9461 14.8285 18.7768 15.0159C18.5755 15.2404 18.3767 15.4645 18.1769 15.6891C18.1666 15.7004 18.1542 15.7102 18.1434 15.7195L17.7237 16.0494L17.703 16.0659C17.7226 16.0907 17.7402 16.1144 17.7608 16.1392L17.783 16.1227L18.2131 15.8006C18.224 15.7927 18.2354 15.7855 18.2471 15.7789C18.7427 15.53 19.2352 15.2823 19.7277 15.0334C19.736 15.0298 19.7427 15.0267 19.7514 15.0267C19.7287 15.0417 19.7076 15.0561 19.6848 15.0701C19.2393 15.3628 18.7938 15.6555 18.3468 15.9482C18.3344 15.9554 18.323 15.9627 18.3096 15.9683C18.1449 16.0396 17.9787 16.1098 17.8156 16.1805L17.7892 16.1908C17.8032 16.2197 17.813 16.2471 17.8254 16.276L17.8491 16.2683C18.0148 16.2027 18.1795 16.134 18.3468 16.0706C18.3881 16.054 18.4335 16.0468 18.4784 16.0375L19.2388 15.8795C19.4753 15.831 19.7096 15.7815 19.9466 15.7324C19.9683 15.7278 19.9884 15.7231 20.0111 15.719C20.0168 15.719 20.022 15.718 20.0302 15.7211L19.9579 15.7448C19.4536 15.9115 18.9508 16.0778 18.4464 16.2425C18.4082 16.2559 18.3659 16.2595 18.3261 16.2657C18.2131 16.2827 18.1015 16.2977 17.9916 16.3137C17.9513 16.3194 17.9116 16.3256 17.8713 16.3307L17.8419 16.3359C17.845 16.3664 17.8496 16.3947 17.8517 16.4278L17.9296 16.4195L18.2084 16.3865C18.2781 16.3777 18.3509 16.3679 18.4237 16.3612C18.4562 16.3586 18.4892 16.3617 18.5228 16.3633C18.5935 16.3664 18.6642 16.3725 18.7381 16.3756L19.1552 16.4004C19.2171 16.404 19.2791 16.4066 19.3431 16.4108L19.7685 16.435C19.8691 16.4412 19.9729 16.4459 20.0731 16.4521C20.0979 16.4535 20.1227 16.4557 20.1474 16.4588L20.072 16.465L19.7597 16.482L19.373 16.5047L19.0814 16.5202C18.9471 16.5285 18.8103 16.5362 18.6751 16.545C18.6007 16.5481 18.5243 16.5553 18.4495 16.5558C18.4066 16.5568 18.3617 16.5486 18.3199 16.5439C18.2282 16.5332 18.1364 16.5222 18.0448 16.5109L17.8687 16.4897H17.8517C17.8496 16.5197 17.845 16.5491 17.8419 16.5806C18.0239 16.6075 18.2059 16.6339 18.3881 16.6596C18.4417 16.6663 18.4887 16.6875 18.5393 16.7035L20.0075 17.1882C20.017 17.1902 20.026 17.1943 20.0338 17.2001C20.0214 17.198 20.0096 17.1959 19.9972 17.1949L18.7221 16.9291L18.3855 16.8588C18.3746 16.8557 18.3602 16.8516 18.3483 16.8459C18.1826 16.7804 18.0164 16.7133 17.8496 16.6467L17.8274 16.6389C17.8154 16.6672 17.8028 16.6953 17.7897 16.7231L17.8171 16.736C17.9818 16.8062 18.1454 16.8759 18.3091 16.9466C18.322 16.9523 18.3349 16.959 18.3483 16.9683L19.7225 17.8686C19.7292 17.8738 19.738 17.88 19.7437 17.8898C19.737 17.8856 19.7292 17.8831 19.7236 17.8789L19.0075 17.5196C18.7577 17.3926 18.5058 17.2667 18.2533 17.1397C18.2372 17.1317 18.2221 17.1218 18.2084 17.1103C18.0664 17.0044 17.9229 16.8981 17.781 16.7912C17.7747 16.7859 17.7679 16.781 17.7608 16.7768C17.7412 16.8005 17.7237 16.8237 17.703 16.8485L17.7226 16.864C17.861 16.9745 18.0019 17.085 18.1408 17.1949C18.1566 17.2062 18.171 17.2194 18.1836 17.2342L19.2775 18.4582C19.282 18.4643 19.2855 18.4711 19.2879 18.4783C19.2822 18.4721 19.2744 18.468 19.2688 18.4633C18.8584 18.0963 18.4474 17.7313 18.036 17.3648C18.0267 17.3565 18.0183 17.3471 18.0112 17.3369L17.6767 16.9105C17.672 16.9038 17.6664 16.8976 17.6607 16.8909C17.6369 16.9105 17.6137 16.928 17.59 16.9487C17.592 16.9549 17.5967 16.9616 17.6008 16.9678L17.9255 17.4004C17.9348 17.413 17.9431 17.4263 17.9503 17.4401C18.1965 17.9285 18.4423 18.4179 18.688 18.9068C18.692 18.9134 18.6946 18.9208 18.6957 18.9284H18.6942V18.9243Z" fill="#010088"/>
<path fill-rule="evenodd" clip-rule="evenodd" d="M18.6891 18.9243C18.6945 18.9297 18.6977 18.9356 18.702 18.9405C18.6993 18.9415 18.6993 18.9432 18.6961 18.9437C18.695 18.9362 18.6912 18.9313 18.6902 18.9243H18.6891Z" fill="#010088"/>
</g>
<defs>
<clipPath id="clip0_11_547">
<rect width="33.0392" height="33.0392" fill="white" transform="translate(0.584473 0.429077)"/>
</clipPath>
</defs>
</svg>
